<svg width="24" height="24" viewBox="0 0 24 24" fill="none" xmlns="http://www.w3.org/2000/svg">
<path fill-rule="evenodd" clip-rule="evenodd" d="M12 2C17.5232 2 22 6.47676 22 12C22 17.5232 17.5232 22 12 22C6.47676 22 2 17.5232 2 12C2 6.47676 6.47676 2 12 2Z" fill="#F0B90B"/>
<path d="M7.49599 12L7.50321 14.6442L9.75 15.9663V17.5144L6.1883 15.4254V11.2267L7.49599 12ZM7.49599 9.35576V10.8966L6.1875 10.1226V8.58173L7.49599 7.80769L8.8109 8.58173L7.49599 9.35576ZM10.6883 8.58173L11.9968 7.80769L13.3117 8.58173L11.9968 9.35576L10.6883 8.58173Z" fill="white"/>
<path d="M8.44153 14.0961V12.5481L9.75 13.3221V14.8629L8.44153 14.0961ZM10.6883 16.5208L11.9968 17.2948L13.3117 16.5208V18.0616L11.9968 18.8357L10.6883 18.0616V16.5208ZM15.1882 8.58173L16.4967 7.80769L17.8116 8.58173V10.1226L16.4967 10.8966V9.35576L15.1882 8.58173ZM16.4967 14.6442L16.5039 12L17.8124 11.2259V15.4246L14.2507 17.5136V15.9655L16.4967 14.6442Z" fill="white"/>
<path d="M15.5585 14.0962L14.25 14.863V13.3222L15.5585 12.5482V14.0962Z" fill="white"/>
<path d="M15.5585 9.90383L15.5657 11.4519L13.3125 12.774V15.4246L12.004 16.1915L10.6955 15.4246V12.774L8.44233 11.4519V9.90383L9.75643 9.12979L11.996 10.4583L14.2492 9.12979L15.5641 9.90383H15.5585ZM8.44153 7.26041L11.9968 5.16426L15.5585 7.26041L14.25 8.03444L11.9968 6.70592L9.75002 8.03444L8.44153 7.26041Z" fill="white"/>
</svg>
